<svg width="90" height="91" viewBox="0 0 90 91" fill="none" xmlns="http://www.w3.org/2000/svg">
<path d="M76.1924 64.9401L62.4611 51.2092L61.8857 51.7846C60.9324 52.7379 59.3854 52.7379 58.4325 51.7846C57.4792 50.8317 57.4792 49.2848 58.4325 48.3315L59.0079 47.7561L55.5547 44.3029L44.044 55.8136L47.4972 59.2668L48.073 58.691C49.0259 57.7381 50.5729 57.7381 51.5262 58.691C52.4791 59.6443 52.4791 61.1912 51.5262 62.1446L50.9504 62.7199L64.6817 76.4508C65.0983 76.8644 65.5576 77.2315 66.0525 77.5455L77.287 66.3114C76.9713 65.8165 76.6042 65.3559 76.1924 64.9401Z" fill="#C4CDDF"/>
<path d="M77.287 66.3112L66.0525 77.5453C69.8301 79.9721 74.8607 78.8774 77.287 75.0993C79.0066 72.422 79.0066 68.9871 77.287 66.3112Z" fill="#D8DEEB"/>
<path d="M25.6269 21.2816L24.4762 16.6772L16.4186 12.0733L11.8143 16.6772L16.4186 24.7348L21.023 25.886L47.4971 52.3606L52.1015 47.7562L25.6269 21.2816Z" fill="#D8DEEB"/>
<path d="M78.1869 21.6709L70.5186 29.3392L63.6122 27.0372L61.3103 20.1305L68.9786 12.4622C62.231 10.7404 55.3659 14.815 53.6441 21.5626C53.1227 23.608 53.1227 25.7512 53.6441 27.7966L27.5379 53.9028C20.7212 52.1727 13.7931 56.2948 12.0631 63.1115C10.3326 69.9278 14.4546 76.8563 21.2714 78.5864C28.0881 80.3165 35.0162 76.1944 36.7462 69.3781C37.2677 67.3223 37.2677 65.1673 36.7462 63.1115L62.8524 37.0053C69.6048 38.7228 76.4694 34.6412 78.1869 27.8888C78.7048 25.8482 78.7048 23.7106 78.1869 21.6709ZM27.9294 71.9288H21.023L17.5694 66.1733L21.023 60.4181H27.9294L31.3825 66.1733L27.9294 71.9288Z" fill="#D8DEEB"/>
<path d="M31.717 57.3013L57.0404 31.9779L58.6683 33.6058L33.3449 58.9291L31.717 57.3013Z" fill="#C4CDDF"/>
<path d="M57.0412 58.9296L58.6691 57.3017L70.1793 68.8124L68.5515 70.4403L57.0412 58.9296Z" fill="#B6C2DA"/>
<path d="M78.5762 70.6955C78.5749 69.1402 78.1274 67.6185 77.2871 66.3112L73.9718 69.626V78.0184C76.7852 76.6637 78.574 73.8172 78.5762 70.6955Z" fill="#C4CDDF"/>
</svg>
