<svg width="16" height="16" viewBox="0 0 16 16" fill="none" xmlns="http://www.w3.org/2000/svg">
<path d="M8.00019 9.60023C8.88387 9.60023 9.60024 8.88386 9.60024 8.00018C9.60024 7.1165 8.88387 6.40014 8.00019 6.40014C7.11651 6.40014 6.40015 7.1165 6.40015 8.00018C6.40015 8.88386 7.11651 9.60023 8.00019 9.60023Z" fill="#606483"/>
<path d="M13.9762 7.86418C13.5057 6.64721 12.6889 5.59476 11.6268 4.83693C10.5647 4.0791 9.30383 3.64909 8 3.60006C6.69617 3.64909 5.43528 4.0791 4.37318 4.83693C3.31107 5.59476 2.49431 6.64721 2.02383 7.86418C1.99206 7.95207 1.99206 8.0483 2.02383 8.13619C2.49431 9.35316 3.31107 10.4056 4.37318 11.1634C5.43528 11.9213 6.69617 12.3513 8 12.4003C9.30383 12.3513 10.5647 11.9213 11.6268 11.1634C12.6889 10.4056 13.5057 9.35316 13.9762 8.13619C14.0079 8.0483 14.0079 7.95207 13.9762 7.86418ZM8 10.6003C7.48575 10.6003 6.98306 10.4478 6.55548 10.1621C6.1279 9.87637 5.79464 9.47029 5.59785 8.99519C5.40105 8.52009 5.34956 7.9973 5.44989 7.49293C5.55021 6.98857 5.79784 6.52528 6.16147 6.16165C6.5251 5.79803 6.98839 5.55039 7.49275 5.45007C7.99712 5.34975 8.5199 5.40124 8.995 5.59803C9.47011 5.79482 9.87618 6.12808 10.1619 6.55566C10.4476 6.98324 10.6001 7.48594 10.6001 8.00018C10.599 8.68944 10.3247 9.35017 9.83736 9.83755C9.34998 10.3249 8.68926 10.5992 8 10.6003Z" fill="#606483"/>
</svg>
